<?xml version="1.0" encoding="utf-8"?>
<!-- Generator: Adobe Illustrator 24.3.0, SVG Export Plug-In . SVG Version: 6.00 Build 0)  -->
<svg version="1.1" id="Layer_1" xmlns="http://www.w3.org/2000/svg" xmlns:xlink="http://www.w3.org/1999/xlink" x="0px" y="0px"
	 viewBox="0 0 1000 1000" style="enable-background:new 0 0 1000 1000;" xml:space="preserve">
<style type="text/css">
	.st0{opacity:0.29;}
	.st1{fill:#C7C6C5;}
	.st2{fill:#8F8F8F;}
	.st3{opacity:0.23;}
	.st4{fill:#CECECD;}
	.st5{opacity:0.39;}
	.st6{fill:#FFFFFF;}
	.st7{fill:#AEAEAE;}
	.st8{fill:#BCBCBC;}
	.st9{fill:#9F9F9F;}
	.st10{display:none;}
	.st11{display:inline;}
	.st12{fill:none;}
	.st13{fill:#D3D3D3;}
	.st14{fill:#CCCCCC;}
	.st15{fill:#DCDBDB;}
	.st16{fill:#B2B2B2;}
	.st17{fill:#606161;}
	.st18{fill:#FDFEFF;}
	.st19{display:inline;opacity:0.22;}
</style>
<g class="st0">
	<path class="st1" d="M562.14,544.38c0,0,26.91-42.39,64.15-37.3c0,0,32.93-0.98,49.4,38.32c0,0,35.68-10.09,43.52,35.78
		c0,0,3.68,18.43-4.82,28.23c0,0-5.37,14.51-50.06,16.07c0,0-40.38-5.1-47.44-2.35c-7.06,2.74-23.91,9.41-40.77,9.8
		s-40.62-7.84-44.62-16.07c-4-8.23-15.45-25.09-10.9-42.73c4.55-17.64,21.61-24.73,21.61-24.73L562.14,544.38z"/>
	<path class="st2" d="M574.96,634.4c-16.45,0-40.33-7.73-44.79-16.91c-0.58-1.19-1.32-2.57-2.14-4.11
		c-4.82-8.99-12.89-24.03-8.86-39.64c4.69-18.14,21.75-25.42,22.48-25.72l19.58-4.94c3.24-4.8,29.76-42.25,65.26-37.47
		c0.05,0.05,33.23-0.57,50.06,38.06c3.74-0.78,15.03-2.3,25.59,4.36c9.58,6.05,15.82,17.11,18.51,32.88
		c0.15,0.74,3.67,19.01-5.02,29.26c-1.02,2.16-8.95,15.26-51.26,16.75c-11.36-1.41-41.45-4.6-46.95-2.45l-0.36,0.13
		c-7.2,2.81-24.07,9.37-40.92,9.76C575.75,634.4,575.36,634.4,574.96,634.4z M620.31,508.14c-33,0-56.67,36.63-56.93,37.02
		l-0.32,0.49l-20.5,5.16c0.05,0-16.24,6.98-20.55,23.67c-3.74,14.49,3.69,28.35,8.6,37.51c0.84,1.57,1.6,2.99,2.19,4.21
		c3.65,7.51,26.56,15.67,43.26,15.25c16.33-0.38,32.86-6.81,39.92-9.56l0.35-0.14c7.21-2.79,43.98,1.74,48.15,2.26
		c42.51-1.51,48.45-15.01,48.5-15.14l0.26-0.44c7.92-9.13,4.53-26.8,4.5-26.97c-2.56-14.95-8.34-25.34-17.19-30.93
		c-11.51-7.26-24.35-3.76-24.49-3.72l-1.26,0.36l-0.5-1.2c-15.91-37.98-47.68-37.45-48-37.41
		C624.3,508.27,622.29,508.14,620.31,508.14z"/>
</g>
<g class="st3">
	<path class="st1" d="M267.8,359.79c0,0-33.37,71.28,37.2,101.99c0,0,37.2,13.26,69.42,8.56l46.02-8.56c0,0,44.94-17.23,73.29-16.08
		c0,0,39.85-6.14,68.61,1.15c0,0,71.72,8.44,92.81,6.52c0,0,87.44-21.86,32.98-95.88c0,0-11.12-13.04-33.37-12.66
		c0,0-25.31-37.58-58.29-36.82c0,0-41.07,7.29-54.29-16.11c0,0-5.54-71.72-65.75-74.78c0,0-44.01-11.51-76.85,44.1
		c0,0-47.03-5.75-51.25,36.43l-4.6,24.97c0,0-0.38,6.86-41.42,6.47C302.31,329.11,278.53,343.29,267.8,359.79z"/>
	<path class="st2" d="M359.82,472.8c-27.91,0-55-9.53-55.32-9.64c-21.01-9.14-34.99-22.68-41.64-40.28
		c-11.58-30.64,2.97-62.38,3.6-63.71l0.1-0.18c10.8-16.58,34.02-30.56,35-31.14l0.36-0.21l0.41,0.01c1.1,0.01,2.18,0.02,3.21,0.02
		c33.91,0,36.75-5.31,36.78-5.37l4.58-24.89c1.19-11.93,5.92-21.34,14.06-27.85c13.94-11.16,33.28-10.27,37.84-9.88
		c32.99-55.02,77.55-44.09,78.01-43.97c58.36,2.95,66.28,70.33,66.82,75.75c12.71,21.89,52.2,15.2,52.59,15.11
		c31.67-0.9,55.64,31.57,59.32,36.79c0.07,0,0.14,0,0.21,0c22.01,0,33.04,12.63,33.51,13.18c16.61,22.57,21.89,42.66,15.72,59.76
		c-10.23,28.39-47.87,38.1-49.47,38.5c-21.24,1.99-90.41-6.14-93.34-6.49c-28.34-7.16-67.82-1.21-68.22-1.15
		c-28.13-1.14-72.54,15.83-72.98,16l-46.28,8.64C369.8,472.49,364.8,472.8,359.82,472.8z M269.09,360.5
		c-0.84,1.88-14.32,32.66-3.46,61.36c6.36,16.82,19.81,29.79,39.96,38.56c0.28,0.09,37.17,13.05,68.62,8.46l45.96-8.56
		c1.59-0.64,45.36-17.15,73.61-16.1c0.12-0.05,40.21-6.08,68.92,1.19c0.53,0.05,71.67,8.36,92.32,6.48
		c0.15-0.06,37.51-9.71,47.19-36.62c5.8-16.12,0.67-35.27-15.26-56.92c-0.04-0.04-10.62-12.07-31.23-12.07c-0.3,0-0.61,0-0.92,0.01
		l-0.8,0.01l-0.44-0.66c-0.25-0.37-24.77-36.18-56.09-36.18c-0.32,0-0.63,0.01-0.95,0.01c-1.49,0.29-42.03,7.17-55.6-16.85
		l-0.18-0.61c-0.06-0.71-6.16-70.46-64.36-73.43c-0.74-0.17-43.66-10.54-75.51,43.38l-0.49,0.83l-0.95-0.11
		c-0.21-0.02-22.04-2.52-36.63,9.17c-7.48,6-11.85,14.72-12.97,25.95l-4.62,25.1c-0.09,1.75-3.59,7.97-42.46,7.68
		C299.77,332.39,278.84,345.6,269.09,360.5z"/>
</g>
<g>
	<path class="st4" d="M537.79,374.98c-11.07-10.93-26.32-1.29-26.32-1.29c-14.67-11.51-27.33,3.6-27.33,3.6
		c-21-8.77-32.21,7.33-32.21,7.33c-26.89-4.31-27.18,12.94-27.18,12.94c-22.87-2.73-25.17,12.37-25.17,12.37
		c-7.51,0.76-12.64,8-15.26,12.83l2.18,5.48c7.6,1.06,16.27,4.89,19.55,6.44c0.79,0.37,1.68,0.21,2.3-0.4
		c1.21-1.2,3.58-3.12,7.11-4.12c4.34-1.24,13.7,2.91,17.12,4.54c0.79,0.38,1.71,0.2,2.32-0.44l3.78-3.92
		c0.36-0.37,0.84-0.59,1.36-0.62l26.55-1.44c0.59-0.03,1.11-0.35,1.47-0.83c6.37-8.55,21.45-7.52,25.67-7.04
		c0.72,0.08,1.35-0.26,1.79-0.83c6.01-7.92,21.76-9.31,25.54-9.53c0.55-0.03,1.04-0.32,1.39-0.74c6.16-7.43,12.64-8.73,18.03-10.03
		c4.92-1.19,11.63-16.46,13.12-19.99c0.19-0.46,0.2-0.97,0.06-1.45C548.41,374.57,537.79,374.98,537.79,374.98z"/>
	<path class="st2" d="M433.42,436.37c-0.51,0-1.01-0.11-1.48-0.33c-5.74-2.74-12.97-5.36-16.09-4.46c-3.27,0.94-5.46,2.76-6.48,3.76
		c-1.06,1.07-2.62,1.34-3.96,0.68c-3.3-1.55-11.77-5.28-19.13-6.31l-0.84-0.12l-2.74-6.91l0.33-0.6
		c2.45-4.52,7.63-12.08,15.37-13.45c1.08-3.55,6.01-14.39,25.06-12.66c0.38-2.1,1.57-5.86,5.21-8.91
		c4.93-4.14,12.54-5.48,22.64-4.01c2.61-3.12,13.88-14.71,32.45-7.49c2.99-3.03,14.62-13.23,27.82-3.61
		c3.54-1.9,16.67-7.86,26.78,1.56c2.52-0.11,11.22,0.06,16.07,3.11l0.46,0.29l0.16,0.52c0.26,0.82,0.22,1.69-0.1,2.46
		c-3.07,7.25-8.98,19.61-14.13,20.85l-0.65,0.16c-5.15,1.23-10.99,2.64-16.59,9.38c-0.62,0.75-1.5,1.22-2.43,1.27
		c-3.1,0.18-18.79,1.48-24.46,8.95c-0.79,1.03-1.95,1.56-3.14,1.4c-4.22-0.47-18.45-1.42-24.32,6.46c-0.64,0.85-1.57,1.37-2.58,1.42
		l-26.54,1.44c-0.14,0.01-0.28,0.07-0.37,0.17l-3.78,3.92C435.26,436,434.34,436.37,433.42,436.37z M417.31,428.46
		c4.82,0,11.8,2.96,15.9,4.92c0.22,0.1,0.45,0.05,0.63-0.14l3.78-3.91c0.6-0.63,1.44-1.02,2.33-1.07l26.55-1.44
		c0.18-0.01,0.32-0.17,0.37-0.24c6.8-9.14,22.38-8.16,27.01-7.62c0.05-0.01,0.23,0.02,0.45-0.26c6.29-8.29,21.97-9.83,26.62-10.11
		c0.11-0.01,0.25-0.09,0.34-0.21c6.23-7.51,12.85-9.1,18.18-10.37l0.65-0.16c2.64-0.63,7.61-8.49,12.11-19.12
		c-4.98-2.61-14.3-2.29-14.39-2.29l-0.64,0.02l-0.45-0.45c-10.1-9.98-23.92-1.46-24.5-1.09l-0.88,0.55l-0.82-0.64
		c-13.34-10.46-24.81,2.82-25.29,3.39l-0.69,0.82l-1-0.41c-19.67-8.21-30.34,6.67-30.44,6.82l-0.53,0.76l-0.91-0.14
		c-9.58-1.53-16.68-0.47-21.09,3.19c-4.21,3.5-4.38,8.14-4.38,8.33l-0.04,1.61l-1.6-0.18c-21.17-2.54-23.53,11-23.54,11.14
		l-0.17,1.13l-1.13,0.11c-6.65,0.67-11.38,7.22-13.78,11.47l1.6,4.05c7.54,1.24,15.83,4.89,19.12,6.44
		c0.21,0.11,0.45,0.07,0.63-0.11c1.49-1.47,4.04-3.43,7.75-4.5C415.72,428.55,416.48,428.46,417.31,428.46z"/>
</g>
<g class="st5">
	<path class="st6" d="M448.99,325.06c-0.08,0.02-0.13,0.03-0.21,0.06c-88.16,30.79-64.88,96.6-64.88,96.6l0.41,1.04
		c2.62-4.83,7.75-12.07,15.26-12.83c0,0,2.3-15.1,25.17-12.37c0,0,0.29-17.26,27.18-12.94c0,0,11.22-16.11,32.21-7.33
		c0,0,12.66-15.1,27.33-3.6c0,0,15.24-9.64,26.32,1.29c0,0,10.62-0.41,15.86,2.87c0-0.01,0.01-0.02,0-0.03
		C530.47,306.71,451.9,324.38,448.99,325.06z"/>
	<path class="st7" d="M384.11,426.22l-1.57-3.96c-0.37-1.05-8.44-24.56,3.95-50.37c10.16-21.18,30.96-37.39,61.82-48.17l0.36-0.1
		c3.37-0.8,82.85-18.46,106.39,53.74l0.07,0.64l-0.05,0.19v2.66l-2.21-1.75c-4.78-3-14.93-2.64-15.02-2.65l-0.64,0.02l-0.45-0.45
		c-10.1-9.98-23.92-1.46-24.5-1.09l-0.88,0.55l-0.82-0.64c-13.34-10.46-24.81,2.82-25.29,3.39l-0.69,0.82l-1-0.41
		c-19.67-8.21-30.34,6.67-30.44,6.82l-0.53,0.76l-0.91-0.14c-9.58-1.53-16.68-0.47-21.09,3.19c-4.21,3.5-4.38,8.14-4.38,8.33
		l-0.04,1.61l-1.6-0.18c-21.17-2.54-23.53,11-23.54,11.14l-0.17,1.13l-1.13,0.11c-6.97,0.7-11.84,7.86-14.12,12.07L384.11,426.22z
		 M449.33,326.49L449.33,326.49c-30.15,10.53-50.38,26.23-60.19,46.68c-9.85,20.52-6.05,39.93-4.43,46.07
		c2.82-4.33,7.41-9.52,13.7-10.62c1.08-3.55,6.01-14.39,25.06-12.66c0.38-2.1,1.57-5.86,5.21-8.91c4.93-4.14,12.54-5.48,22.64-4.01
		c2.61-3.12,13.86-14.72,32.45-7.49c2.99-3.03,14.62-13.23,27.82-3.61c3.54-1.9,16.67-7.86,26.78,1.56c2.03-0.09,8,0.03,12.81,1.63
		C527.2,309.18,452.62,325.72,449.33,326.49z M448.99,325.06l0.38,1.42L448.99,325.06z"/>
</g>
<g>
	<polygon class="st8" points="465.18,428.76 450.53,385.08 453.32,384.15 467.97,427.83 	"/>
</g>
<g>
	<polygon class="st8" points="499.37,547.34 385.43,429.26 387.55,427.22 500.28,544.05 516.41,539.62 552.21,377.54 555.08,378.17 
		518.9,541.99 	"/>
</g>
<g>
	<polygon class="st8" points="503.85,545.25 404.34,431.95 406.54,430.01 476.77,509.96 416.05,430.84 398.48,410.9 400.68,408.96 
		418.32,428.97 506.12,543.39 	"/>
</g>
<g>
	<polygon class="st8" points="506.14,544.45 428.91,430.74 431.34,429.08 488.1,512.64 441.59,430.66 423.47,398.28 426.03,396.84 
		444.15,429.22 508.64,542.9 	"/>
</g>
<g>
	<path class="st8" d="M508.1,543.64l-50.77-116.32l10.24-0.56l43.25,115.77L508.1,543.64z M461.72,430.03l27.32,62.58l-23.46-62.79
		L461.72,430.03z"/>
</g>
<g>
	<path class="st8" d="M513.2,543.55l-0.02-1.4l-2.43,0.37l-18.62-122.73l0.69-0.53c1.42-1.09,13.95-10.65,19.66-9.47l1.17,0.22
		l2.42,129.7l0.24-0.06l16.15-139.59l11.57-3.85l-20.81,126.22l-1.92-0.32l-2.3,19.84L513.2,543.55z M495.3,421.07l17.81,117.39
		l-2.35-125.79C507.04,413.15,499.83,417.7,495.3,421.07z M535.17,402.25l-11.5,99.32l16.66-101.03L535.17,402.25z"/>
</g>
<g>
	<polygon class="st8" points="492.28,420.74 482.71,377.6 485.58,376.97 495.15,420.11 	"/>
</g>
<g>
	<rect x="510.73" y="374.98" class="st8" width="2.94" height="36.25"/>
</g>
<g>
	<polygon class="st8" points="535.27,401.38 532.37,400.94 536.33,374.76 539.24,375.2 	"/>
</g>
<g>
	
		<rect x="534.48" y="386.64" transform="matrix(0.2809 -0.9597 0.9597 0.2809 19.5467 802.3196)" class="st8" width="21.38" height="2.94"/>
</g>
<g>
	<g>
		<path class="st2" d="M502.01,552.69c3.2-1.07,6.39-2.14,9.59-3.2c3.02-1.01,5.94-2.28,9.03-2.14c1.54,0.07,3.01-1.4,2.94-2.94
			c-0.07-1.65-1.29-2.87-2.94-2.94c-3.6-0.16-6.88,1.11-10.23,2.23c-3.32,1.11-6.63,2.22-9.95,3.33c-1.51,0.5-2.49,2.03-2.05,3.62
			C498.8,552.1,500.5,553.19,502.01,552.69L502.01,552.69z"/>
	</g>
</g>
<g>
	<g>
		<path class="st7" d="M496.67,551.63c-0.11,1.01,0.2,1.88,0.62,2.79c0.54,1.16,2.16,1.67,3.32,1.35c1.3-0.36,2.08-1.54,2.16-2.84
			c0.08-1.35,0.1-2.7,0.05-4.05c-1.83,0.49-3.65,0.99-5.48,1.48c0.11,0.14,0.55,0.92,0.39,0.59c0.24,0.49,0.39,1.01,0.69,1.47
			c0.81,1.26,2.15,2.07,3.67,2.1c1.23,0.03,2.41-0.45,3.56-0.81c1.24-0.39,2.47-0.78,3.71-1.18c2.33-0.74,4.65-1.48,6.98-2.21
			c2.2-0.7,4.42-1.62,6.77-1.51c1.59,0.07,2.94-1.4,2.94-2.94c0-1.65-1.35-2.87-2.94-2.94c-2.26-0.1-4.45,0.49-6.58,1.17
			c-2.04,0.64-4.07,1.29-6.11,1.94c-2.04,0.65-4.07,1.29-6.11,1.94c-0.46,0.14-1.38,0.25-1.74,0.55c-0.37,0.03-0.47,0.08-0.29,0.13
			c0.31,0.14,0.63,0.28,0.94,0.42c0.2,0.22,0.2,0.19,0.02-0.11c0.16,0.39,0.08,0.21-0.23-0.54c-0.16-0.37-0.33-0.7-0.57-1.02
			c-0.81-1.05-1.95-1.73-3.32-1.35c-1.22,0.33-2.2,1.55-2.16,2.84c0.04,1.35,0.03,2.7-0.05,4.05c1.83-0.49,3.65-0.99,5.48-1.48
			c0.11,0.63,0.18,0.69,0.19,0.18c0.17-1.58-1.47-2.94-2.94-2.94C497.89,548.69,496.84,550.04,496.67,551.63L496.67,551.63z"/>
	</g>
</g>
<g>
	<path class="st7" d="M499.34,592.6c-2.65,0-5.36-0.26-7.66-0.58c-2.16-0.3-3.88-1.78-4.48-3.85c-2.23-7.74-5.94-21.52-5.83-26.86
		c0.16-7.24,13.9-9.34,18.11-9.81l0.24-0.04l35.52-7.4c1.99-0.43,4.07,0.28,5.29,1.8c7.76,9.7,7.4,23.54,6.88,29.05
		c-0.2,2.15-1.67,3.96-3.76,4.62c-7.49,2.35-32.27,10.18-36.89,12C504.73,592.31,502.07,592.6,499.34,592.6z M500.33,554.33
		c-0.18,0.04-0.37,0.07-0.56,0.09c-5.29,0.59-15.37,2.81-15.46,6.95c-0.07,3.56,2.06,13.28,5.71,25.99
		c0.27,0.94,1.06,1.61,2.06,1.75c3.54,0.49,10,1.09,13.6-0.32c4.57-1.81,27.46-9.04,37.08-12.07c0.95-0.3,1.63-1.13,1.72-2.09
		c0.49-5.15,0.85-18.08-6.24-26.93c-0.53-0.66-1.48-0.93-2.39-0.76L500.33,554.33z"/>
</g>
<g>
	<path class="st7" d="M507.4,589.89c-4.34-8.72-9.36-19.64-8.61-22.07c0.41-1.3,0.01-8.51-0.61-14.73l2.93-0.29
		c0.22,2.21,1.27,13.36,0.49,15.89c-0.1,1.57,4.3,11.58,8.43,19.89L507.4,589.89z"/>
</g>
<g>
	<polygon class="st7" points="484.75,572.54 484.23,569.65 499.93,566.81 543.2,552.99 544.09,555.79 500.64,569.66 	"/>
</g>
<g class="st0">
	<path class="st1" d="M363.47,707.41c0,0,7.84-59.59,72.92-69.78c0,0,36.87-6.27,52.54,34.89c0,0,18.92-2.74,22,20.78
		c0,0,47.28-1.57,42.82,48.61c0,0-18.63,51.75-83.68,39.2c0,0-71.96-14.9-85.75-4.7c0,0-63.97,24.31-82.01-21.95
		C302.31,754.45,293.69,687.02,363.47,707.41z"/>
	<path class="st9" d="M489.43,785.26c-6.08,0-12.66-0.61-19.78-1.99c-19.78-4.09-73.36-12.98-84.02-5.09l-0.53,0.29
		c-0.65,0.25-66.22,24.53-84.84-23.22c-0.29-1.73-3.74-30.5,13.71-45.41c10.71-9.15,26.77-10.89,47.77-5.21
		c2.44-11.59,16.05-60.06,74.31-69.18c0.36-0.07,37.9-5.94,54.35,34.76c2.81,0.03,8.29,0.43,13.31,4.23
		c4.74,3.59,7.81,9.19,9.12,16.67c5.56,0.2,21.54,1.81,32.58,13.48c8.41,8.89,11.96,21.51,10.53,37.51l-0.12,0.55
		C555.65,743.13,539.83,785.26,489.43,785.26z M404.53,770.64c24.84,0,60.6,7.2,65.98,8.32c60.6,11.66,79.42-33.25,81.06-37.53
		c1.23-14.53-1.91-25.89-9.34-33.77c-11.89-12.59-31-12.16-31.23-12.15l-1.99,0.06l-0.26-1.98c-0.94-7.18-3.51-12.43-7.65-15.59
		c-5.4-4.13-11.8-3.3-11.85-3.3l-1.74,0.24l-0.63-1.64c-14.81-38.9-48.68-33.75-50.12-33.5c-62.65,9.81-70.78,65.52-71.1,67.89
		l-0.34,2.55l-2.47-0.72c-20.62-6.03-36.1-4.8-46,3.65c-15.65,13.35-12.38,40.72-12.35,41c16.35,41.77,74.43,21.83,78.78,20.26
		C387.32,771.66,395.15,770.64,404.53,770.64z"/>
</g>
<g class="st10">
	<g class="st11">
		<path class="st2" d="M691.34,661.77H304.51c-11.35,0-20.58-9.24-20.58-20.58V358.81c0-11.35,9.23-20.58,20.58-20.58h386.83
			c11.35,0,20.58,9.23,20.58,20.58v282.38C711.93,652.53,702.69,661.77,691.34,661.77z M304.51,342.01c-9.27,0-16.8,7.54-16.8,16.8
			v282.38c0,9.27,7.54,16.81,16.8,16.81h386.83c9.27,0,16.81-7.54,16.81-16.81V358.81c0-9.27-7.54-16.8-16.81-16.8H304.51z"/>
	</g>
	<g class="st11">
		<polygon class="st12" points="384.55,395.11 368.84,445.5 402.91,445.5 388.11,395.11 		"/>
	</g>
	<g class="st11">
		<polygon class="st12" points="364.08,460.61 354.18,492.36 416.63,492.36 407.29,460.61 		"/>
	</g>
	<g class="st11">
		<path class="st2" d="M399.44,380h-25.99l-35.09,112.36h15.82l9.9-31.75h43.21l9.33,31.75h15.77L399.44,380z M368.84,445.5
			l15.71-50.39h3.55l14.81,50.39H368.84z"/>
	</g>
	<g class="st11">
		<rect x="490.77" y="340.12" class="st2" width="3.78" height="319.76"/>
	</g>
	<g class="st11">
		<rect x="501.12" y="340.12" class="st2" width="3.78" height="319.76"/>
	</g>
	<g class="st11">
		<polygon class="st9" points="516.76,368.45 479.6,368.45 479.62,365.55 478.25,365.5 478.24,362.29 479.55,362.28 479.54,358.84 
			516.67,358.84 516.67,362.32 518.01,362.33 518.01,365.48 516.76,365.48 		"/>
	</g>
	<g class="st11">
		<polygon class="st9" points="516.76,398.75 479.6,398.75 479.62,395.85 478.25,395.8 478.24,392.59 479.55,392.58 479.54,389.14 
			516.67,389.14 516.67,392.62 518.01,392.63 518.01,395.78 516.76,395.78 		"/>
	</g>
	<g class="st11">
		<polygon class="st9" points="516.76,429.05 479.6,429.05 479.62,426.15 478.25,426.1 478.24,422.89 479.55,422.88 479.54,419.44 
			516.67,419.44 516.67,422.93 518.01,422.94 518.01,426.09 516.76,426.08 		"/>
	</g>
	<g class="st11">
		<polygon class="st9" points="516.76,459.35 479.6,459.35 479.62,456.45 478.25,456.4 478.24,453.19 479.55,453.18 479.54,449.74 
			516.67,449.74 516.67,453.23 518.01,453.24 518.01,456.39 516.76,456.38 		"/>
	</g>
	<g class="st11">
		<polygon class="st9" points="516.76,489.65 479.6,489.65 479.62,486.75 478.25,486.7 478.24,483.5 479.55,483.48 479.54,480.04 
			516.67,480.04 516.67,483.53 518.01,483.54 518.01,486.69 516.76,486.68 		"/>
	</g>
	<g class="st11">
		<polygon class="st9" points="516.76,519.95 479.6,519.95 479.62,517.05 478.25,517.01 478.24,513.8 479.55,513.78 479.54,510.35 
			516.67,510.35 516.67,513.83 518.01,513.84 518.01,516.99 516.76,516.98 		"/>
	</g>
	<g class="st11">
		<polygon class="st9" points="516.76,550.25 479.6,550.25 479.62,547.35 478.25,547.31 478.24,544.1 479.55,544.08 479.54,540.65 
			516.67,540.65 516.67,544.13 518.01,544.14 518.01,547.29 516.76,547.28 		"/>
	</g>
	<g class="st11">
		<polygon class="st9" points="598.45,543.72 549.38,543.72 549.41,539.89 546.99,539.83 546.99,535.6 549.31,535.58 549.31,531.04 
			598.33,531.04 598.33,535.64 601.01,535.65 601.01,539.81 598.45,539.8 		"/>
	</g>
	<g class="st11">
		<polygon class="st9" points="683.18,543.72 614.6,543.72 614.63,539.89 611.26,539.83 611.25,535.6 614.5,535.58 614.5,531.04 
			683.02,531.04 683.02,535.64 686.76,535.65 686.76,539.81 683.18,539.8 		"/>
	</g>
	<g class="st11">
		<polygon class="st9" points="516.76,580.56 479.6,580.56 479.62,577.65 478.25,577.61 478.24,574.4 479.55,574.38 479.54,570.95 
			516.67,570.95 516.67,574.43 518.01,574.44 518.01,577.59 516.76,577.58 		"/>
	</g>
	<g class="st11">
		<polygon class="st9" points="516.76,610.86 479.6,610.86 479.62,607.96 478.25,607.91 478.24,604.7 479.55,604.69 479.54,601.25 
			516.67,601.25 516.67,604.73 518.01,604.74 518.01,607.89 516.76,607.89 		"/>
	</g>
	<g class="st11">
		<polygon class="st9" points="516.76,641.16 479.6,641.16 479.62,638.26 478.25,638.21 478.24,635 479.55,634.99 479.54,631.55 
			516.67,631.55 516.67,635.03 518.01,635.04 518.01,638.19 516.76,638.19 		"/>
	</g>
	<g class="st11">
		<rect x="551.32" y="568.24" class="st9" width="122.31" height="5.91"/>
	</g>
	<g class="st11">
		<rect x="551.32" y="591.33" class="st9" width="112.71" height="5.91"/>
	</g>
	<g class="st11">
		<rect x="720.69" y="641.59" class="st1" width="59.31" height="5.91"/>
	</g>
	<g class="st11">
		<rect x="220" y="641.59" class="st1" width="59.31" height="5.91"/>
	</g>
	<g class="st11">
		<rect x="551.32" y="610.86" class="st9" width="122.31" height="5.91"/>
	</g>
	<g class="st11">
		<path class="st13" d="M737.82,424.25h-27.79v-50.38h27.79c0.57,0,1.04,0.46,1.04,1.04v48.31
			C738.86,423.78,738.4,424.25,737.82,424.25z"/>
		<path class="st2" d="M731.04,426.13h-22.89v-54.16h22.89c5.36,0,9.71,4.36,9.71,9.71v34.74
			C740.75,421.78,736.39,426.13,731.04,426.13z M711.93,422.36h19.11c3.27,0,5.93-2.66,5.93-5.93v-34.74c0-3.27-2.66-5.93-5.93-5.93
			h-19.11V422.36z"/>
	</g>
	<g class="st11">
		<path class="st13" d="M740.78,490.27h-20.09v-50.38h20.09c0.57,0,1.04,0.46,1.04,1.04v48.31
			C741.82,489.8,741.35,490.27,740.78,490.27z"/>
		<path class="st2" d="M733.99,491.88h-14.92v-53.61h14.92c5.2,0,9.44,4.23,9.44,9.43v34.74
			C743.43,487.65,739.2,491.88,733.99,491.88z M722.31,488.65h11.69c3.42,0,6.21-2.78,6.21-6.2v-34.74c0-3.42-2.79-6.2-6.21-6.2
			h-11.69V488.65z"/>
	</g>
	<g class="st11">
		<path class="st13" d="M738.82,556.23h-20.09v-50.38h20.09c0.57,0,1.04,0.46,1.04,1.04v48.31
			C739.86,555.76,739.39,556.23,738.82,556.23z"/>
		<path class="st2" d="M732.03,557.84h-14.92v-53.61h14.92c5.2,0,9.44,4.23,9.44,9.44v34.73
			C741.47,553.61,737.24,557.84,732.03,557.84z M720.35,554.61h11.69c3.42,0,6.2-2.78,6.2-6.2v-34.73c0-3.42-2.79-6.2-6.2-6.2
			h-11.69V554.61z"/>
	</g>
	<g class="st11">
		<path class="st13" d="M740.78,626.44h-20.09v-50.38h20.09c0.57,0,1.04,0.46,1.04,1.04v48.31
			C741.82,625.97,741.35,626.44,740.78,626.44z"/>
		<path class="st2" d="M733.99,628.05h-14.92v-53.61h14.92c5.2,0,9.44,4.23,9.44,9.44v34.73
			C743.43,623.82,739.2,628.05,733.99,628.05z M722.31,624.82h11.69c3.42,0,6.21-2.78,6.21-6.2v-34.73c0-3.42-2.79-6.21-6.21-6.21
			h-11.69V624.82z"/>
	</g>
	<g class="st11">
		<path class="st2" d="M702,662.72H294.97c-11.87,0-21.52-9.66-21.52-21.53V358.81c0-11.87,9.66-21.52,21.52-21.52H702
			c11.87,0,21.53,9.66,21.53,21.52v282.38C723.52,653.06,713.87,662.72,702,662.72z M294.97,342.95c-8.74,0-15.86,7.12-15.86,15.86
			v282.38c0,8.75,7.12,15.86,15.86,15.86H702c8.75,0,15.86-7.11,15.86-15.86V358.81c0-8.74-7.12-15.86-15.86-15.86H294.97z"/>
	</g>
	<g class="st11">
		<path class="st1" d="M560.01,489.65c0,0-11.82-19.83,27.71-24.57c0,0,28.08,28.76,49.15,0c0,0,34,5.11,28.82,24.57H560.01z"/>
		<path class="st2" d="M666.42,490.59H559.47l-0.28-0.46c-0.15-0.26-3.64-6.23-0.48-12.65c3.43-6.96,13.15-11.45,28.9-13.34
			l0.46-0.06l0.32,0.34c0.13,0.13,13.39,13.55,28.03,12.43c7.45-0.52,14.07-4.68,19.68-12.34l0.34-0.46l0.56,0.08
			c0.85,0.13,20.83,3.24,27.81,13.86c2.34,3.56,2.94,7.55,1.79,11.89L666.42,490.59z M560.58,488.7h104.37
			c0.76-3.51,0.19-6.76-1.71-9.66c-5.89-8.98-22.69-12.36-25.96-12.94c-5.88,7.83-12.85,12.08-20.73,12.64
			c-14.35,1.11-26.93-10.49-29.17-12.67c-14.59,1.81-23.9,6.03-26.96,12.22C558.17,482.85,559.91,487.29,560.58,488.7z"/>
	</g>
	<g class="st11">
		<path class="st2" d="M599.08,427.92c-4.68,0-8.48-3.8-8.48-8.48s3.81-8.48,8.48-8.48c4.68,0,8.48,3.81,8.48,8.48
			S603.76,427.92,599.08,427.92z M599.08,412.85c-3.64,0-6.6,2.96-6.6,6.6c0,3.63,2.96,6.59,6.6,6.59c3.63,0,6.59-2.96,6.59-6.59
			C605.67,415.81,602.71,412.85,599.08,412.85z"/>
	</g>
	<g class="st11">
		<path class="st2" d="M625.5,427.92c-4.68,0-8.48-3.8-8.48-8.48s3.8-8.48,8.48-8.48c4.68,0,8.48,3.81,8.48,8.48
			S630.18,427.92,625.5,427.92z M625.5,412.85c-3.63,0-6.59,2.96-6.59,6.6c0,3.63,2.96,6.59,6.59,6.59c3.63,0,6.59-2.96,6.59-6.59
			C632.1,415.81,629.14,412.85,625.5,412.85z"/>
	</g>
	<g class="st11">
		<path class="st13" d="M602.87,439.89c0,0,10.35,9.36,19.95,0"/>
		<path class="st2" d="M613.44,444.94c-6.22,0-11.1-4.31-11.17-4.38l1.21-1.34c0.39,0.35,9.83,8.65,18.72,0.02l1.25,1.29
			C620.07,443.83,616.58,444.94,613.44,444.94z"/>
	</g>
	<g class="st11">
		<path class="st2" d="M581.4,427.92c-0.81,0-1.86-0.01-3.18-0.04c-0.84-0.02-1.58-0.37-2.14-1c-1.84-2.08-1.55-6.87-1.08-11.59
			c0.05-0.53,0.1-1,0.13-1.38c0.06-0.81,0.44-1.45,1.1-1.84c2.13-1.29,6.87,0.68,7.8,1.08l0.54,0.24v14.43l-0.84,0.06
			C583.68,427.88,583,427.92,581.4,427.92z M578.08,413.43c-0.39,0-0.72,0.06-0.94,0.19c-0.1,0.06-0.21,0.14-0.22,0.43
			c-0.03,0.39-0.08,0.87-0.13,1.42c-0.27,2.77-0.84,8.55,0.64,10.22c0.23,0.27,0.49,0.38,0.83,0.39c2.25,0.07,3.69,0.06,4.5,0.03
			v-11.53C581.3,413.99,579.34,413.43,578.08,413.43z"/>
	</g>
	<g class="st11">
		<path class="st2" d="M641.51,430.35v-14.67l0.2-0.24c0.46-0.57,2.86-3.38,4.94-3.21c0.55,0.05,1.32,0.32,1.86,1.32
			c1.42,2.65,3.69,12.57,1.04,14.24c-1.96,1.23-6.74,2.28-6.94,2.32L641.51,430.35z M643.31,416.32v11.77
			c1.65-0.41,4.16-1.13,5.27-1.83c1.04-0.83-0.09-8.92-1.67-11.86c-0.25-0.46-0.41-0.38-0.49-0.38
			C645.62,414.02,644.19,415.3,643.31,416.32z"/>
	</g>
	<g class="st11">
		<path class="st9" d="M583.4,407.13c0,0,0.18-14.96,13.8-21.15s12.88-7.86,12.88-7.86s-1.42,5.43,1.77,6.21s6.12-7.16,6.12-7.16
			l3.87,2.91c0,0,1.52,7.95,3.67,5.16s5.84-10.41,5.84-10.41s5.19-3.92,3.73,10.83c0,0,9.32,9.46,8.16,28.87c0,0,5.17-2.55,4.5-1.4
			c-0.67,1.15-0.71-33.89-0.71-33.89s0.74-10.9-5.73-12.93c0,0,1.66-9.24-3.88-8.5s-10.16,5.85-10.16,5.85l-22.73-1.6
			c0,0-25.87,2.96-25.68,20.32c0.18,17.37,0,29.54,0,29.54h4.8L583.4,407.13z"/>
		<path class="st2" d="M642.83,415.14l0.04-0.65c1.13-18.99-7.96-28.49-8.06-28.58l-0.13-0.13l0.02-0.18
			c0.81-8.21-0.49-10.24-1.34-10.72c-0.7-0.39-1.48,0.04-1.72,0.18c-0.44,0.91-3.8,7.72-5.84,10.38c-0.58,0.74-1.12,0.79-1.47,0.71
			c-1.63-0.39-2.6-4.69-2.84-5.89l-3.35-2.52c-0.69,1.74-3.02,6.99-5.84,7c-0.18,0-0.36-0.02-0.55-0.07
			c-0.76-0.19-1.36-0.62-1.76-1.3c-0.65-1.1-0.67-2.61-0.56-3.76c-1.44,1.27-4.75,3.35-12.08,6.68
			c-13.09,5.96-13.57,20.33-13.58,20.8l0.28,5.16h-5.58l0.01-0.38c0-0.12,0.18-12.36,0-29.53c-0.19-17.5,25.75-20.68,26.01-20.71
			l22.62,1.59c0.8-0.84,5.09-5.14,10.26-5.83c1.31-0.19,2.35,0.15,3.11,0.95c1.91,2,1.43,6.43,1.25,7.67
			c6.34,2.33,5.71,12.76,5.68,13.21c0.01,12.1,0.17,30.12,0.53,33.27c0.05,0.03,0.08,0.06,0.11,0.09c0.08,0.08,0.24,0.32,0.01,0.69
			l-0.14,0.25l-0.31-0.05c-0.07-0.02-0.15-0.04-0.22-0.29c-0.69,0.14-2.47,0.9-3.97,1.64L642.83,415.14z M635.47,385.52
			c1.1,1.21,9.04,10.66,8.19,28.38c1.94-0.93,2.99-1.29,3.59-1.4c-0.29-2.22-0.56-9.44-0.59-33.27c0.01-0.13,0.64-10.65-5.47-12.57
			l-0.32-0.1l0.06-0.33c0.01-0.05,0.93-5.32-1-7.34c-0.6-0.62-1.4-0.87-2.46-0.72c-5.34,0.71-9.89,5.68-9.93,5.73l-0.12,0.14
			l-0.18-0.01l-22.73-1.6c-0.19,0.03-25.46,3.12-25.28,19.95c0.17,15.48,0.04,26.96,0.01,29.16h4.02l-0.24-4.4
			c0-0.15,0.34-15.27,14.02-21.49c10.51-4.78,12.3-6.8,12.6-7.33c0.03-0.16,0.06-0.26,0.07-0.28l0.27-1.04l0.44,0.98
			c0.05,0.12,0.07,0.3-0.05,0.56c-0.17,0.83-0.54,3.12,0.27,4.49c0.3,0.5,0.72,0.82,1.29,0.96c0.12,0.03,0.24,0.04,0.36,0.04
			c2.24,0,4.57-4.95,5.32-6.97l0.18-0.48l4.39,3.31l0.03,0.14c0.41,2.13,1.39,5.22,2.3,5.44c0.22,0.06,0.44-0.1,0.7-0.44
			c2.1-2.74,5.77-10.27,5.81-10.35l0.11-0.14c0.06-0.04,1.34-1,2.61-0.29C635.51,375.23,636.1,379.03,635.47,385.52z"/>
	</g>
	<g class="st11">
		<path class="st2" d="M612.93,454.97c-8.58,0-21.35-3.8-30.13-23.44l-0.08-0.39v-21.43l0,0c-0.02,0-3.93-19.13,19.37-26.72
			l8.03-5.5l1.71,6.96c1.34-1.09,3.5-3.18,4.18-5.66c0.56-2.07,1.96-2.55,3.03-2.31c2.1,0.46,4.18,3.75,3.62,7.15
			c-0.11,0.63-0.04,1.1,0.19,1.28c0.23,0.2,0.75,0.18,1.33-0.04c1.22-0.47,2.59-1.81,2.89-3.76c0.79-5.14,4.66-7.91,4.83-8.02
			l0.48-0.33l0.51,0.27c0.06,0.03,6,3.33,2.51,12.43c2.24,2.35,11.55,13.34,7.98,30.55c0.29,1.82,2.23,15.57-3.84,21.57
			c-0.7,1.94-5.73,14.75-17.6,15.92C621.2,453.78,617.71,454.97,612.93,454.97z M584.6,430.94c13.49,29.95,35.82,21.16,36.76,20.76
			l0.28-0.07c11.42-1.04,16.14-14.74,16.19-14.88l0.25-0.39c5.84-5.5,3.43-20.07,3.41-20.22l-0.03-0.18l0.04-0.18
			c3.9-18.43-7.73-29.3-7.84-29.41l-0.49-0.45l0.25-0.61c2.67-6.41,0.2-9.34-0.93-10.28c-0.96,0.86-3.04,3.05-3.54,6.35
			c-0.41,2.69-2.35,4.57-4.08,5.24c-1.25,0.48-2.42,0.37-3.21-0.26c-0.55-0.45-1.15-1.34-0.86-3.06c0.42-2.52-1.17-4.78-2.15-4.99
			c-0.33-0.07-0.61,0.24-0.81,0.96c-1.19,4.36-5.87,7.44-6.06,7.57l-1.11,0.72l-1.72-6.99l-6.14,4.16
			c-21.84,7.04-18.26,24.59-18.22,24.76L584.6,430.94z"/>
	</g>
	<g class="st11">
		<rect x="551.33" y="488.38" class="st2" width="122.31" height="3.78"/>
	</g>
	<g class="st11">
		<path class="st2" d="M587.76,466.03l-0.07-1.89c8.56-0.33,9.06-8.79,9.3-12.87c0.05-0.89,0.08-1.47,0.2-1.87l1.82,0.49
			c-0.06,0.22-0.1,0.87-0.13,1.51C598.65,455.28,598.03,465.63,587.76,466.03z"/>
	</g>
	<g class="st11">
		<path class="st2" d="M636.69,466.03c-2.31,0-4.25-0.8-5.8-2.38c-4.15-4.26-3.84-12.72-3.82-13.08l1.89,0.08
			c0,0.08-0.3,8.02,3.29,11.68c1.22,1.25,2.69,1.76,4.6,1.81l0.04,1.89C636.82,466.03,636.76,466.03,636.69,466.03z"/>
	</g>
</g>
<g class="st10">
	<g class="st11">
		<path class="st9" d="M746.36,609.18H197.18v-16.14l2.77-0.25c2.01-0.18,4.79-0.82,6.64-2.84c0.56-0.61,1.08-1.33,1.59-2.21
			l1.01-1.74l2,0.25c1.14,0.15,2.12,0.08,3.02-0.21l2.9-1.24c1.21-0.75,2.43-1.96,3.35-3.53l1.16-2.81
			c-0.05,0.17-0.04-0.18-0.02-0.46l0.22-2.45l2.5-0.89c1.13-0.14,2.08-0.47,2.9-0.99l2.47-1.92c0.99-1.05,1.87-2.54,2.36-4.3
			l0.39-3.12c-0.03-0.31-0.18-0.99-0.32-1.68l-0.51-2.51l2.38-0.93c1.07-0.43,1.94-1,2.64-1.75c1.07-1.01,1.7-1.99,2.09-3.16
			c0.78-1.59,1.05-2.77,1-4.07l-0.45-3.25c-0.19-0.59-0.7-1.59-1.5-2.73l-2-2.84l3.08-1.61l2.09,2.22l0.03-0.02l-1.38-2.54
			c1.11-0.59,1.97-1.39,2.63-2.41c1.14-1.31,1.69-2.35,1.98-3.58c0.4-1.77,0.42-3.61,0.04-5.3l-0.52-2.35l2.9-1.32
			c1.17-0.38,2.15-1.01,3-1.93c1.07-1.02,1.71-2.01,2.09-3.16c0.78-1.59,1.05-2.77,1-4.07l-0.45-3.26
			c-0.18-0.52-0.63-1.45-1.33-2.51l-0.78-1.17l0.39-1.35c0.6-1.84,0.66-3.06,0.38-4.31l-0.11-0.78l0.04-2.03
			c0.76-2.05,1.2-3.65,1.43-5.18c0.5-1.72,0.55-2.94,0.27-4.19c-0.12-1.78-0.49-2.9-1.18-3.99c-0.71-1.29-1.49-2.15-2.51-2.81
			c-1.07-0.93-1.92-1.4-3.01-1.75l-2.11-0.69l0.01-2.22c0-1.25-0.24-2.35-0.76-3.33c-0.59-1.64-1.22-2.62-2.13-3.47l1.46-2.77
			l-2.35,2.02l-1.05-0.91v-4.15c0.05-1.42-0.21-2.59-0.8-3.72c-0.58-1.63-1.21-2.62-2.13-3.46c-0.36-0.38-0.59-0.53-0.8-0.7
			l-1.49-1.14l0.08-2.06c0.15-0.77,0.27-1.32,0.27-1.92v-2.42c0.05-1.43-0.21-2.61-0.8-3.72c-0.58-1.64-1.21-2.62-2.13-3.47
			l-1.46-1.42l0.63-2.95l2.63-7.79c0.38-1.21,0.43-2.43,0.15-3.69c-0.12-1.78-0.49-2.9-1.18-3.99c-0.51-0.93-1.2-1.55-2.1-2.28
			l-2-1.59l1.67-3c0.69-1.09,1.05-2.22,1.11-3.46c0.35-1.78,0.29-3-0.1-4.26c-0.15-0.62-0.34-1.05-0.58-1.57l-0.38-0.82l0.27-1.63
			c0.33-1.62,0.28-2.84-0.12-4.1l2.58-1.82l-3.01,0.68l-0.41-1.09l0.42-1.09c0.33-0.84,0.49-1.54,0.52-2.18
			c0.35-1.78,0.29-3-0.1-4.26l-0.63-2.12l2.78-2.77c1.03-0.67,1.82-1.53,2.41-2.63l1.22-2.92c0.36-1.46,0.36-3.27-0.13-5.11
			l-1.21-2.79c-0.05-0.03-0.35-0.36-0.63-0.69l-1.38-1.61l0.81-2.1c0.58-1.05,0.88-2.04,0.93-3.04c0.33-1.68,0.28-2.85-0.08-4.09
			l-0.33-1.11l0.5-1.05c0.29-0.6,0.46-1.06,0.56-1.48c0.45-1.46,0.5-2.68,0.23-3.93c-0.13-1.77-0.5-2.9-1.18-3.99l-1.92-2.47
			c-1.04-0.99-2.53-1.86-4.3-2.35l-2.11-0.26l-0.72-1.43c-0.45-0.9-0.92-1.56-1.47-2.08c-0.84-0.9-1.69-1.46-2.75-1.88l-0.91-0.36
			l-0.53-0.82c-0.75-1.17-1.64-2.28-2.51-3.37c-0.78-0.99-1.13-1.39-1.5-1.75c-0.94-1.01-1.91-1.64-3.08-2.02
			c-1.59-0.78-2.86-1.09-4.08-1l-0.16-0.48h-0.98l-0.03,0.58l-1.73,0.16l-5.17-7.06l6.3,0.24h540.49V609.18z M203.27,603.09h537.01
			V329.92h-520.4c0.25,0.29,0.5,0.59,0.75,0.9c1.16,1.46,2.04,2.57,2.79,3.65c1.5,0.72,2.81,1.67,3.89,2.83
			c0.65,0.59,1.28,1.37,1.86,2.31c2.86,0.87,5.1,2.23,6.98,4.1l2.34,2.99c1.42,2.21,2.11,4.38,2.22,6.68
			c0.44,1.77,0.34,4.08-0.37,6.37c-0.11,0.49-0.29,0.99-0.48,1.44c0.38,1.84,0.36,3.67-0.03,5.46c-0.02,0.93-0.26,2.08-0.73,3.28
			c0.15,0.21,0.29,0.42,0.42,0.64l1.52,3.54c0.9,3.27,0.9,6.18,0.13,9.06l-1.48,3.57c-1.04,1.96-2.3,3.44-3.84,4.6
			c0.33,1.71,0.31,3.54-0.1,5.36c0.01,0.58-0.14,1.42-0.44,2.39c0.08,0.24,0.15,0.44,0.2,0.67c0.64,2.01,0.75,4.27,0.29,6.5
			c0.2,0.5,0.39,1.03,0.53,1.62c0.66,2.07,0.76,4.38,0.25,6.68c-0.03,1.28-0.39,2.76-1.06,4.22c0.6,0.63,1.16,1.36,1.62,2.21
			c1.15,1.79,1.84,3.96,1.95,6.27c0.44,1.76,0.34,4.08-0.37,6.37l-2.32,6.97c1.05,1.24,1.91,2.74,2.45,4.42
			c0.88,1.58,1.38,3.82,1.29,6.19l0,2.32c0,0.43-0.03,0.84-0.08,1.25c0.08,0.08,0.16,0.16,0.24,0.25c1.51,1.39,2.72,3.27,3.41,5.41
			c0.88,1.59,1.38,3.82,1.3,6.18l0,1.23c0.05,0.05,0.1,0.1,0.14,0.14c1.52,1.4,2.73,3.27,3.43,5.43c0.53,0.94,0.92,2.2,1.12,3.61
			c1.08,0.52,2.03,1.17,2.87,1.94c1.47,0.9,2.97,2.53,4.05,4.53c1.15,1.78,1.84,3.96,1.94,6.26c0.44,1.77,0.34,4.08-0.37,6.36
			c-0.16,1.3-0.61,3.04-1.33,5.1c0.04,0.25,0.07,0.48,0.08,0.7c0.39,1.58,0.36,3.56-0.14,5.57c0.63,1.13,1.1,2.24,1.42,3.36
			l0.56,3.96c0.11,2.64-0.38,4.88-1.46,6.95c-0.5,1.66-1.7,3.54-3.37,5.1c-0.94,1.01-2.08,1.89-3.38,2.57
			c0.12,1.79-0.02,3.63-0.43,5.43c-0.54,2.27-1.59,4.24-3.11,5.91c-0.59,0.97-1.49,1.94-2.61,2.81c0.34,0.73,0.61,1.45,0.82,2.2
			l0.56,3.95c0.12,2.65-0.38,4.9-1.47,6.95c-0.5,1.69-1.71,3.56-3.38,5.11c-0.67,0.73-1.51,1.41-2.47,2
			c0.03,0.31,0.04,0.63,0.04,0.94l-0.5,3.96c-0.86,3.17-2.27,5.59-4.28,7.62l-3,2.35c-1.08,0.71-2.17,1.21-3.3,1.56
			c-0.02,0.07-0.04,0.15-0.06,0.23l-1.48,3.58c-1.63,2.81-3.6,4.77-6.04,6.22l-3.53,1.52c-1.36,0.44-2.62,0.65-3.91,0.67
			c-0.42,0.59-0.87,1.15-1.34,1.66c-1.96,2.14-4.63,3.62-7.81,4.35V603.09z"/>
	</g>
	<g class="st11">
		<rect x="257.32" y="388.03" class="st14" width="142.34" height="6.49"/>
	</g>
	<g class="st11">
		<rect x="257.32" y="409.54" class="st14" width="113.92" height="6.49"/>
	</g>
	<g class="st11">
		<rect x="257.32" y="431.06" class="st14" width="121.09" height="6.49"/>
	</g>
	<g class="st11">
		<rect x="257.32" y="452.57" class="st14" width="92.27" height="6.49"/>
	</g>
	<g class="st11">
		<rect x="171.41" y="591.52" class="st14" width="28.82" height="9.13"/>
	</g>
	<g class="st11">
		<rect x="746.42" y="592.13" class="st14" width="52.56" height="9.13"/>
	</g>
	<g class="st11">
		<rect x="130.61" y="593.55" class="st14" width="28.82" height="6.29"/>
	</g>
	<g class="st11">
		<path class="st14" d="M704.64,417.39h-38.94c-0.4,0-0.72-0.32-0.72-0.73v-49.29c0-0.4,0.32-0.72,0.72-0.72h38.94
			c0.4,0,0.72,0.32,0.72,0.72v49.29C705.37,417.07,705.04,417.39,704.64,417.39z"/>
	</g>
	<g class="st11">
		<path class="st9" d="M709.26,429.16h-12.74v-4.06h12.49L709.26,429.16z M684.03,429.16h-12.49v-4.06h12.49V429.16z M658.44,428.77
			c-3.25-1.08-5.44-4.1-5.44-7.52v-5.11h4.06v5.11c0,1.67,1.07,3.15,2.66,3.67L658.44,428.77z M716.93,417.76h-4.06v-12.49h4.06
			V417.76z M657.06,403.64h-4.06v-12.49h4.06V403.64z M716.93,392.78h-4.06v-12.49h4.06V392.78z M657.06,378.66h-4.06v-12.49h4.06
			V378.66z M716.93,367.79h-4.06v-4.99c0-1.71-1.09-3.19-2.73-3.69l1.19-3.88c3.35,1.02,5.6,4.07,5.6,7.58V367.79z M698.28,358.94
			h-12.49v-4.06h12.49V358.94z M673.29,358.94h-12.37l-0.12-4.07l0.49,0.04l12.01-0.03V358.94z"/>
	</g>
	<g class="st11">
		<path class="st15" d="M471.77,495.32c0,0-42.21,7.85-42.62-39.51c0,0,8.93-43.16,48.3-39.78c0,0,19.08,2.98,28.41,26.92
			l56.42-2.03c0,0,13.39-47.73,56.01-25.08c0,0,29.22,22.65,12.99,48.22c0,0-4.46,22.73-33.69,25.17c0,0-0.81,48.3,10.96,66.16
			c0,0,10.55-1.62,13.39-3.65s12.18,7.71,12.18,7.71s5.68,8.93,4.46,10.55s-21.92-8.12-23.54-3.65c-1.62,4.46,7.31,27.6,4.87,39.78
			s-4.87,27.6-19.89,38.97c0,0,10.15,7.31,6.9,13.39c0,0-6.9,7.71-21.11,2.03l-7.31-5.68c0,0-47.49,11.77-84.83,0.41
			c0,0,1.42,12.08-15.63,5.99c-17.05-6.09-2.44-17.45-2.44-17.45l-15.9-15.46c0,0-5.82-20.57-1.76-40.05
			c4.06-19.48,0.81-17.45,0.81-17.45s-8.52-2.84-15.02,0.81c-6.49,3.65-14.61,0.41-11.77-4.46s9.34-12.18,10.96-12.18
			c1.62,0,12.58,4.06,13.8,4.46c1.22,0.41,9.34,1.22,9.74-0.41c0.41-1.62,5.28-28.01,5.28-28.01V495.32z"/>
		<path class="st9" d="M486.29,665.98c-2.65,0-5.74-0.63-9.25-1.88c-6.09-2.18-9.51-5.38-10.18-9.51
			c-0.71-4.43,2.09-8.44,4.35-10.85l-14.19-13.8l-0.22-0.78c-0.25-0.87-5.97-21.52-1.81-41.5c1.83-8.78,2.04-12.61,1.97-14.17
			c-2.09-0.52-7.57-1.54-11.71,0.81c-5.15,2.89-11.75,2.54-15.05-0.81c-2.1-2.13-2.43-5.14-0.85-7.84
			c0.99-1.71,9.09-13.69,13.59-13.69c1.22,0,3.61,0.63,13.23,4.07l1.53,0.55c0.93,0.25,4.29,0.55,6.11,0.37
			c0.85-4.32,3.29-17.43,4.96-26.45l-0.05-31.75c-6.12,0.43-18.91,0.15-29.01-8.17c-8.9-7.33-13.48-19.01-13.61-34.72
			c0.16-1.09,9.99-46.43,51.61-42.84c1.03,0.16,20.05,3.39,30.16,26.85l52.18-1.88c2.08-5.91,9.04-22.26,24.03-28.67
			c10.42-4.46,22.42-3.16,35.64,3.87c0.75,0.52,31.33,24.69,14.4,52.11c-1,3.75-7.45,23.25-33.49,26.69
			c0.04,9.9,0.83,44.58,9.45,60.08c4.28-0.77,8.89-1.93,10.1-2.79c3.31-2.35,8.74,0.36,16.14,8.09c7.18,11.18,5.57,13.33,4.71,14.48
			c-1.76,2.36-4.57,1.48-11.34-0.67c-3.13-1-9.28-2.95-11.81-2.97c0.09,2.08,1.15,6.77,2.02,10.64c2.03,8.98,4.56,20.16,3.01,27.91
			l-0.34,1.7c-2.26,11.46-5.05,25.51-17.77,36.71c3.38,3.22,7.91,9.01,4.82,14.79c-0.76,0.98-8.94,9.81-24.92,3.42l-0.74-0.43
			l-6.16-4.79c-8.15,1.86-47.72,9.94-81.5,1.01c-0.49,1.66-1.42,3.38-3.06,4.68C491.45,665.27,489.12,665.98,486.29,665.98z
			 M462.46,626.73l17.78,17.3l-2.74,2.16c-1.69,1.32-5.04,4.89-4.62,7.45c0.28,1.72,2.49,3.4,6.21,4.72
			c4.94,1.78,8.72,2.01,10.36,0.71c1.4-1.12,1.22-3.45,1.22-3.47l-0.54-4.62l4.46,1.36c36.09,11,82.75-0.33,83.21-0.45l1.43-0.36
			l8.13,6.33c10.25,3.95,15.75,0,17.05-1.14c0.95-2.84-3.74-7.41-6.14-9.14l-3.35-2.41l3.29-2.49c13.4-10.14,16.06-23.58,18.4-35.43
			l0.34-1.7c1.29-6.48-1.08-16.95-2.98-25.37c-1.86-8.21-2.71-12.27-1.77-14.86c1.99-5.47,10.41-2.8,19.34,0.04
			c0.92,0.29,1.98,0.63,2.97,0.93c-0.77-1.56-1.83-3.45-2.94-5.19c-2.83-2.87-6.8-6-8.39-6.52c-3.56,2.08-11.65,3.45-14.15,3.84
			l-1.93,0.29l-1.07-1.63c-12.15-18.43-11.49-65.88-11.46-67.89l0.05-2.76l2.74-0.23c26.44-2.2,30.79-21.89,30.96-22.73l0.42-1.03
			c14.58-22.97-11.18-43.33-12.28-44.17c-11.07-5.84-21.29-7.06-29.93-3.39c-15.38,6.56-21.23,26.68-21.29,26.88l-0.6,2.13
			l-60.8,2.2l-0.79-2.02c-8.53-21.89-25.34-24.91-26.06-25.03c-35.96-3.09-44.49,35.75-44.84,37.4c0.18,13.16,4,23.27,11.42,29.4
			c11.29,9.34,27.5,6.52,27.66,6.48l3.59-0.65l0,39.37c-0.55,3.27-4.95,27.08-5.37,28.75l-0.33,1.28l-1.59,1.11
			c-2.99,1.64-10.58,0.55-11.74,0.15l-1.66-0.59c-5.63-2.01-9.24-3.23-10.76-3.61c-1.76,1.35-6.31,6.36-8.75,10.55
			c-0.14,0.46,0.17,0.83,1.05,1.13c1.47,0.48,4.08,0.57,6.6-0.86c5.93-3.33,13.03-2.16,16.03-1.44l0.57-0.36l2.18,1.18
			c1.92,1.34,3.36,3.92-0.1,20.53C457.53,605.33,461.5,622.9,462.46,626.73z"/>
	</g>
	<g class="st11">
		<path class="st16" d="M575.28,450.67c0,0,15.02,17.45,15.02,24.76c0,7.31,30.04-1.89,29.63-19.62s-10.15-25.71-16.64-24.76
			C596.79,432,582.58,429.16,575.28,450.67z"/>
	</g>
	<g class="st11">
		<path class="st16" d="M491.66,452.57c0,0-8.12-26.11-31.25-18.27c0,0-16.64,8.53-16.64,20.16c0,11.63,1.62,19.92,9.74,23.49
			c8.12,3.57,21.92,1.95,21.92,1.95L491.66,452.57z"/>
	</g>
	<g class="st11">
		<circle class="st17" cx="511.41" cy="495.39" r="7.92"/>
	</g>
	<g class="st11">
		<ellipse class="st18" cx="533.06" cy="606.13" rx="43.84" ry="37.55"/>
	</g>
	<g class="st11">
		<circle class="st17" cx="556.06" cy="495.39" r="7.92"/>
	</g>
	<g class="st11">
		<path class="st9" d="M531.98,527.46c-4.44,0-8.05-3.62-8.05-8.05c0-4.44,3.61-8.05,8.05-8.05s8.05,3.61,8.05,8.05
			C540.03,523.84,536.42,527.46,531.98,527.46z M531.98,517.45c-1.08,0-1.96,0.88-1.96,1.96c0,2.17,3.92,2.17,3.92,0
			C533.94,518.33,533.06,517.45,531.98,517.45z"/>
	</g>
	<g class="st11">
		<polygon class="st9" points="514.8,526.44 496.3,526.44 496.3,522.39 510.74,522.39 510.74,516.43 487.33,516.43 487.33,512.37 
			514.8,512.37 		"/>
	</g>
	<g class="st11">
		<polygon class="st9" points="569.12,526.44 552.14,526.44 552.14,512.37 579.61,512.37 579.61,516.43 556.2,516.43 556.2,522.39 
			569.12,522.39 		"/>
	</g>
	<g class="st11">
		<path class="st9" d="M437.54,621.07l-1.18,0.17c-5.18,1.58-17.46,5.88-19.66,11.91c-0.72,1.97-0.48,4.01,0.66,5.77
			c2.42,3.72,3.71,10.87,3.62,13.3c-0.32,0.43-0.59,0.88-0.86,1.35c-1.21,2.05-2.87,4.85-8.87,5.34c-2.58,0.2-7.15,0.29-12.42,0.32
			c-0.17,0.13-0.34,0.27-0.51,0.39c-0.1,0.08-0.21,0.15-0.32,0.22c-2.08,1.21-4.32,1.81-6.73,1.82c-0.04-0.01-0.07-0.01-0.11-0.01
			c-1.67,0.78-3.36,1.53-5.13,2.13c-3.66,1.24-7.99,1.64-11.77,2.04c-4.05,0.44-8.03,0.58-12.01,0.5l-0.01,0.68
			c1.05,0.02,17.65,0.36,31.87,0.36c7.44,0,14.23-0.1,17.79-0.38c10.19-0.82,13.71-6.75,15.21-9.53c4.2-3.38,0.69-16.43-2.35-21.99
			c1.8-1.7,7.63-4.46,13.41-6.29h20.8v-8.12H437.54z"/>
	</g>
	<g class="st19">
		<g>
			<path class="st6" d="M565.58,510.88c4.45-0.03,8.9,0.07,13.35,0.3c0.64,0.03,0.64-0.97,0-1c-4.44-0.23-8.9-0.33-13.35-0.3
				C564.93,509.88,564.93,510.88,565.58,510.88L565.58,510.88z"/>
		</g>
	</g>
	<g class="st19">
		<g>
			<path class="st6" d="M565.78,510.42c2.1,0.18,4.21,0.35,6.31,0.53c0.64,0.05,0.64-0.95,0-1c-2.1-0.18-4.21-0.35-6.31-0.53
				C565.14,509.37,565.14,510.37,565.78,510.42L565.78,510.42z"/>
		</g>
	</g>
	<g class="st19">
		<g>
			<path class="st6" d="M571.81,511.44c1.72,0.25,3.44,0.4,5.18,0.41c0.64,0.01,0.64-0.99,0-1c-1.64-0.02-3.29-0.14-4.91-0.38
				c-0.27-0.04-0.54,0.07-0.62,0.35C571.4,511.06,571.54,511.4,571.81,511.44L571.81,511.44z"/>
		</g>
	</g>
	<g class="st19">
		<g>
			<path class="st6" d="M575.48,512.29c0.83,0.18,1.68,0.31,2.52,0.39c0.26,0.03,0.51-0.25,0.5-0.5c-0.01-0.29-0.22-0.47-0.5-0.5
				c-0.2-0.02-0.4-0.04-0.6-0.07c-0.05-0.01-0.09-0.01-0.14-0.02c0.11,0.01-0.04-0.01-0.05-0.01c-0.1-0.01-0.2-0.03-0.3-0.04
				c-0.39-0.06-0.78-0.14-1.17-0.22c-0.25-0.06-0.55,0.08-0.62,0.35C575.07,511.93,575.21,512.23,575.48,512.29L575.48,512.29z"/>
		</g>
	</g>
	<g class="st19">
		<g>
			<path class="st6" d="M578.73,513.11c0.13,0.07,0.25,0.15,0.36,0.24c-0.03-0.03-0.07-0.05-0.1-0.08c0.18,0.14,0.35,0.31,0.49,0.49
				c0.05,0.05,0.1,0.08,0.16,0.1c0.06,0.03,0.12,0.05,0.19,0.04c0.12,0,0.27-0.05,0.35-0.15c0.09-0.1,0.15-0.22,0.15-0.35
				c-0.01-0.04-0.01-0.09-0.02-0.13c-0.02-0.08-0.07-0.16-0.13-0.22c-0.12-0.15-0.25-0.29-0.4-0.41c-0.17-0.15-0.36-0.28-0.56-0.39
				c-0.12-0.06-0.26-0.09-0.39-0.05c-0.12,0.03-0.24,0.12-0.3,0.23c-0.06,0.12-0.09,0.26-0.05,0.39
				C578.54,512.93,578.61,513.04,578.73,513.11L578.73,513.11z"/>
		</g>
	</g>
	<g class="st19">
		<g>
			<path class="st6" d="M574.52,509.99c-0.29,0.41-0.51,0.86-0.66,1.34c-0.08,0.25,0.09,0.56,0.35,0.62
				c0.27,0.06,0.53-0.08,0.62-0.35c0.04-0.12,0.08-0.25,0.14-0.37c-0.02,0.04-0.03,0.08-0.05,0.12c0.13-0.3,0.29-0.59,0.48-0.85
				c0.07-0.1,0.08-0.27,0.05-0.39c-0.03-0.12-0.12-0.24-0.23-0.3c-0.12-0.06-0.26-0.09-0.39-0.05
				C574.69,509.8,574.6,509.88,574.52,509.99L574.52,509.99z"/>
		</g>
	</g>
	<g class="st19">
		<g>
			<path class="st6" d="M568.49,510.09c0,0.27,0,0.54,0,0.81c0,0.13,0.06,0.26,0.15,0.35c0.09,0.09,0.23,0.15,0.35,0.15
				c0.13-0.01,0.26-0.05,0.35-0.15c0.09-0.1,0.15-0.22,0.15-0.35c0-0.27,0-0.54,0-0.81c0-0.13-0.06-0.26-0.15-0.35
				c-0.09-0.09-0.23-0.15-0.35-0.15c-0.13,0.01-0.26,0.05-0.35,0.15C568.55,509.83,568.49,509.95,568.49,510.09L568.49,510.09z"/>
		</g>
	</g>
	<g class="st19">
		<g>
			<path class="st6" d="M568.6,511.41c0.07,0.97,0.26,2.06,1.26,2.5c0.53,0.24,1.13,0.31,1.7,0.34c0.6,0.03,1.2-0.02,1.79-0.12
				c0.27-0.05,0.42-0.37,0.35-0.62c-0.08-0.28-0.35-0.4-0.62-0.35c-0.46,0.08-0.94,0.11-1.41,0.09c-0.43-0.02-0.9-0.05-1.31-0.21
				c-0.67-0.25-0.72-1.01-0.77-1.64c-0.02-0.27-0.22-0.5-0.5-0.5C568.85,510.91,568.58,511.14,568.6,511.41L568.6,511.41z"/>
		</g>
	</g>
	<g class="st19">
		<g>
			<path class="st6" d="M574.17,516.26c0.74,0.72,1.74,1.06,2.76,1.09c1.15,0.03,2.26-0.35,3.31-0.8c0.25-0.11,0.3-0.47,0.18-0.68
				c-0.15-0.26-0.44-0.29-0.68-0.18c-1.5,0.65-3.53,1.15-4.85-0.13C574.41,515.1,573.7,515.81,574.17,516.26L574.17,516.26z"/>
		</g>
	</g>
	<g class="st19">
		<g>
			<path class="st6" d="M493.75,514.19c-0.78,0.79-1.38,1.74-1.77,2.78c-0.09,0.25,0.1,0.56,0.35,0.62
				c0.28,0.06,0.52-0.09,0.62-0.35c0.02-0.06,0.05-0.12,0.07-0.18c0-0.01,0.04-0.09,0.02-0.04c-0.02,0.05,0.01-0.03,0.02-0.04
				c0.05-0.11,0.1-0.22,0.16-0.33c0.11-0.22,0.24-0.44,0.37-0.66c0.07-0.1,0.13-0.2,0.21-0.3c0.03-0.05,0.07-0.09,0.1-0.14
				c0.03-0.04,0.03-0.04,0,0c0.02-0.03,0.04-0.06,0.07-0.08c0.16-0.2,0.33-0.38,0.5-0.56c0.18-0.19,0.2-0.52,0-0.71
				C494.26,514.01,493.94,513.99,493.75,514.19L493.75,514.19z"/>
		</g>
	</g>
	<g class="st19">
		<g>
			<path class="st6" d="M487.07,512.77c-0.16,1.34-0.29,2.82,0.2,4.11c0.12,0.32,0.3,0.63,0.61,0.8c0.3,0.17,0.64,0.19,0.97,0.12
				c0.67-0.14,1.08-0.73,1.41-1.27c0.34-0.55-0.53-1.05-0.86-0.5c-0.19,0.32-0.43,0.77-0.84,0.82c-0.11,0.01-0.19-0.01-0.27-0.12
				c-0.13-0.2-0.17-0.48-0.22-0.7c-0.23-1.06-0.12-2.18,0.01-3.25c0.03-0.27-0.25-0.5-0.5-0.5
				C487.27,512.27,487.1,512.5,487.07,512.77L487.07,512.77z"/>
		</g>
	</g>
	<g class="st19">
		<g>
			<path class="st6" d="M489.43,513.32c-0.18,1.29,0.24,2.78,1.51,3.38c1.4,0.65,2.93-0.01,4.19-0.67c0.57-0.3,0.07-1.16-0.5-0.86
				c-0.91,0.47-2.13,1.1-3.16,0.68c-0.86-0.35-1.19-1.4-1.07-2.26c0.04-0.27-0.07-0.54-0.35-0.62
				C489.81,512.91,489.47,513.05,489.43,513.32L489.43,513.32z"/>
		</g>
	</g>
	<g class="st19">
		<g>
			<path class="st6" d="M498.08,511.83c0.07,0.5,0.19,0.97,0.39,1.44c0.17,0.4,0.39,0.83,0.7,1.13c0.4,0.38,0.93,0.46,1.43,0.22
				c0.4-0.19,0.71-0.56,0.96-0.92c0.15-0.21,0.05-0.57-0.18-0.68c-0.26-0.14-0.52-0.05-0.68,0.18c-0.02,0.03-0.04,0.06-0.07,0.09
				c-0.06,0.08,0.05-0.06-0.03,0.04c-0.05,0.06-0.1,0.12-0.16,0.18c-0.03,0.03-0.07,0.07-0.1,0.1c-0.02,0.02-0.11,0.09-0.02,0.02
				c-0.06,0.04-0.12,0.08-0.19,0.12c-0.09,0.05,0.09-0.02-0.01,0c-0.02,0.01-0.08,0.01-0.1,0.03c0.07-0.01,0.09-0.01,0.05-0.01
				c-0.02,0-0.03,0-0.05,0c-0.1,0,0.09,0.03-0.01,0c-0.02-0.01-0.05-0.01-0.07-0.02c0.02,0.01,0.03,0.01,0.05,0.02
				c-0.02,0-0.08-0.04-0.1-0.06c0.08,0.09,0,0-0.02-0.02c-0.01-0.01-0.11-0.12-0.06-0.07c0.04,0.05-0.03-0.05-0.04-0.06
				c-0.02-0.03-0.05-0.07-0.07-0.1c-0.05-0.08-0.1-0.16-0.15-0.25c-0.04-0.08-0.08-0.16-0.12-0.24c-0.02-0.04-0.04-0.08-0.06-0.12
				c-0.06-0.13,0.03,0.09-0.02-0.04c-0.06-0.16-0.12-0.33-0.17-0.5c-0.02-0.09-0.04-0.17-0.06-0.26c-0.01-0.05-0.02-0.1-0.03-0.15
				c0-0.02-0.03-0.18-0.01-0.06c-0.02-0.14-0.04-0.25-0.15-0.35c-0.09-0.09-0.23-0.15-0.35-0.15
				C498.33,511.34,498.04,511.55,498.08,511.83L498.08,511.83z"/>
		</g>
	</g>
	<g class="st19">
		<g>
			<path class="st6" d="M497.39,511.29c-0.1,0.95-0.01,1.93,0.25,2.85c0.07,0.25,0.36,0.43,0.62,0.35c0.26-0.08,0.43-0.35,0.35-0.62
				c-0.06-0.21-0.11-0.43-0.15-0.64c-0.01-0.07-0.02-0.13-0.03-0.2c0-0.02-0.02-0.16-0.01-0.07c-0.01-0.11-0.03-0.22-0.03-0.33
				c-0.04-0.45-0.03-0.9,0.02-1.34c0.03-0.26-0.25-0.51-0.5-0.5C497.6,510.8,497.42,511.01,497.39,511.29L497.39,511.29z"/>
		</g>
	</g>
	<g class="st19">
		<g>
			<path class="st6" d="M491.82,509.3c-0.64,1.34-0.57,2.96,0.25,4.21c0.15,0.23,0.44,0.32,0.68,0.18c0.22-0.13,0.33-0.46,0.18-0.68
				c-0.62-0.95-0.73-2.19-0.25-3.2c0.12-0.24,0.07-0.54-0.18-0.68C492.28,508.99,491.94,509.06,491.82,509.3L491.82,509.3z"/>
		</g>
	</g>
	<g class="st19">
		<g>
			<path class="st6" d="M488.48,509.26c-0.2,0.79-0.3,1.61-0.24,2.43c0.05,0.73,0.14,1.57,0.9,1.9c0.65,0.29,1.48,0.16,2.16,0.07
				c0.81-0.1,1.61-0.29,2.38-0.56c0.25-0.09,0.42-0.34,0.35-0.62c-0.07-0.25-0.36-0.44-0.62-0.35c-0.64,0.23-1.31,0.4-1.98,0.5
				c-0.31,0.05-0.62,0.08-0.93,0.09c-0.26,0.01-0.55,0.05-0.81-0.01c-0.2-0.05-0.3-0.13-0.35-0.32c-0.08-0.29-0.1-0.6-0.11-0.89
				c-0.03-0.67,0.05-1.33,0.22-1.98C489.61,508.91,488.65,508.64,488.48,509.26L488.48,509.26z"/>
		</g>
	</g>
	<g class="st19">
		<g>
			<path class="st6" d="M489.56,511.16c-0.24,0.95-0.23,2,0.09,2.93c0.15,0.44,0.41,0.87,0.88,1.02c0.43,0.13,1-0.02,1.19-0.46
				c0.11-0.25,0.07-0.54-0.18-0.68c-0.21-0.12-0.58-0.07-0.68,0.18c-0.01,0.01-0.01,0.02-0.02,0.04c-0.02,0.04-0.02,0.04,0,0.01
				c0,0,0.09-0.06,0.05-0.04c-0.02,0.01-0.02,0.01,0.01,0c0.04-0.01,0.03-0.01-0.01,0c-0.03,0.03-0.04,0,0.02,0
				c-0.02,0-0.05,0-0.08,0c0.1-0.01,0.03,0.02,0-0.01c-0.06-0.04,0.06,0.05,0.01,0c-0.02-0.02-0.08-0.06-0.03-0.02
				c-0.02-0.02-0.04-0.04-0.07-0.07c0.05,0.05,0-0.01-0.02-0.03c-0.02-0.03-0.03-0.06-0.05-0.08c-0.01-0.03-0.05-0.1-0.02-0.04
				c-0.06-0.15-0.11-0.31-0.14-0.48c-0.16-0.66-0.15-1.36,0.02-2.02c0.06-0.25-0.08-0.55-0.35-0.62
				C489.92,510.75,489.63,510.89,489.56,511.16L489.56,511.16z"/>
		</g>
	</g>
	<g class="st19">
		<g>
			<path class="st6" d="M484.71,514.75c-0.56,0.69-1.16,1.43-1.35,2.33c-0.17,0.82-0.02,1.74,0.61,2.33
				c0.47,0.44,1.18-0.27,0.71-0.71c-0.21-0.2-0.3-0.38-0.36-0.68c-0.05-0.23-0.03-0.55,0.03-0.79c0.17-0.68,0.64-1.24,1.07-1.78
				c0.17-0.21,0.21-0.5,0-0.71C485.25,514.57,484.88,514.54,484.71,514.75L484.71,514.75z"/>
		</g>
	</g>
</g>
</svg>
